HIERARCHY
ROOT Hips
{
 OFFSET 0.000000 0.000000 0.000000
 CHANNELS 6 Xposition Yposition Zposition Yrotation Xrotation Zrotation
 JOINT Chest
 {
  OFFSET 0.000000 9.588913 -0.003946
  CHANNELS 3 Yrotation Xrotation Zrotation
  JOINT Chest2
  {
   OFFSET 0.000000 9.541882 0.008053
   CHANNELS 3 Yrotation Xrotation Zrotation
   JOINT Chest3
   {
    OFFSET 0.000000 9.501360 0.000000
    CHANNELS 3 Yrotation Xrotation Zrotation
    JOINT Chest4
    {
     OFFSET 0.000000 9.491660 0.000000
     CHANNELS 3 Yrotation Xrotation Zrotation
     JOINT Neck
     {
      OFFSET 0.000000 14.331917 0.000000
      CHANNELS 3 Yrotation Xrotation Zrotation
      JOINT Head
      {
       OFFSET 0.000000 8.884799 0.017034
       CHANNELS 3 Yrotation Xrotation Zrotation
       End Site
       {
        OFFSET 0.000000 16.896195 0.008993
       }
      }
     }
     JOINT RightCollar
     {
      OFFSET -2.923010 9.499495 0.000000
      CHANNELS 3 Yrotation Xrotation Zrotation
      JOINT RightShoulder
      {
       OFFSET -13.795216 0.000000 0.000000
       CHANNELS 3 Yrotation Xrotation Zrotation
       JOINT RightElbow
       {
        OFFSET -30.272209 0.000000 0.000000
        CHANNELS 3 Yrotation Xrotation Zrotation
        JOINT RightWrist
        {
         OFFSET -24.478199 0.000000 0.000000
         CHANNELS 3 Yrotation Xrotation Zrotation
         End Site
         {
          OFFSET -18.090752 0.000000 0.000000
         }
        }
       }
      }
     }
     JOINT LeftCollar
     {
      OFFSET 2.923010 9.499495 0.000000
      CHANNELS 3 Yrotation Xrotation Zrotation
      JOINT LeftShoulder
      {
       OFFSET 13.795216 0.000000 0.000000
       CHANNELS 3 Yrotation Xrotation Zrotation
       JOINT LeftElbow
       {
        OFFSET 30.272209 0.000000 0.000000
        CHANNELS 3 Yrotation Xrotation Zrotation
        JOINT LeftWrist
        {
         OFFSET 24.478199 0.000000 0.000000
         CHANNELS 3 Yrotation Xrotation Zrotation
         End Site
         {
          OFFSET 18.090752 0.000000 0.000000
         }
        }
       }
      }
     }
    }
   }
  }
 }
 JOINT RightHip
 {
  OFFSET -7.826875 0.019532 0.001973
  CHANNELS 3 Yrotation Xrotation Zrotation
  JOINT RightKnee
  {
   OFFSET 0.000000 -40.546152 -0.001885
   CHANNELS 3 Yrotation Xrotation Zrotation
   JOINT RightAnkle
   {
    OFFSET 0.000000 -39.417092 -0.003189
    CHANNELS 3 Yrotation Xrotation Zrotation
    JOINT RightToe
    {
     OFFSET 0.000000 -7.579396 17.243563
     CHANNELS 3 Yrotation Xrotation Zrotation
     End Site
     {
      OFFSET 0.000000 -1.500329 6.694466
     }
    }
   }
  }
 }
 JOINT LeftHip
 {
  OFFSET 7.826875 0.019532 0.001973
  CHANNELS 3 Yrotation Xrotation Zrotation
  JOINT LeftKnee
  {
   OFFSET 0.000000 -40.546152 -0.001885
   CHANNELS 3 Yrotation Xrotation Zrotation
   JOINT LeftAnkle
   {
    OFFSET 0.000000 -39.417092 -0.003189
    CHANNELS 3 Yrotation Xrotation Zrotation
    JOINT LeftToe
    {
     OFFSET 0.000000 -7.579396 17.243563
     CHANNELS 3 Yrotation Xrotation Zrotation
     End Site
     {
      OFFSET 0.000000 -1.500329 6.694466
     }
    }
   }
  }
 }
}
MOTION
Frames: 11
Frame Time: 0.008333
55.721737 86.902411 -9.987112 101.883867 -3.464506 3.441659 -7.547492 15.798134 2.481709 -4.860496 9.061852 1.268209 -6.062958 11.341452 1.467551 -4.860494 9.061851 1.268211 10.959131 17.442602 -10.649878 23.433379 -0.259080 -22.958587 12.171465 -0.044875 -9.550878 -17.442170 -15.553611 64.605110 102.223799 35.394092 -10.443795 9.297208 2.766643 -33.906822 -5.808538 -3.953713 -1.851031 -26.368657 -47.590117 -57.712601 -68.888552 29.101555 -4.712059 -17.180207 2.023070 34.252554 -4.988198 -17.337552 -6.195237 5.181344 22.508462 4.991562 1.338288 -1.657590 -0.181592 -0.504285 1.266092 -0.004145 -5.687396 -10.250272 -1.566047 -2.550428 33.132578 -5.010721 -5.072285 -19.391067 -8.513350 -0.457946 -0.062447 3.034906
55.757985 86.869493 -9.907973 101.834141 -3.358840 3.476239 -7.637014 15.863999 2.424467 -4.858217 9.105785 1.273069 -6.060008 11.396414 1.473136 -4.858216 9.105785 1.273071 10.997111 17.307446 -10.710341 23.551266 -0.475343 -23.111127 12.110419 -0.046874 -9.605555 -17.707721 -15.420705 64.705268 102.993829 35.333437 -10.172744 9.329976 2.805566 -34.016068 -5.768374 -4.050654 -1.849965 -25.876138 -47.646520 -57.358442 -69.148657 28.556365 -4.026370 -17.007810 1.876816 33.866970 -4.940393 -17.564003 -6.166322 5.250024 22.769466 5.089750 1.292935 -1.800404 -0.375671 -0.453911 1.242925 0.015832 -5.867572 -10.764776 -1.115258 -2.735481 34.146597 -5.374869 -5.022502 -20.076773 -9.651115 -0.477111 -0.091066 3.122395
55.788855 86.849528 -9.846143 101.801284 -3.258802 3.571429 -7.764765 15.920832 2.308585 -4.853467 9.151305 1.273715 -6.054065 11.453298 1.473480 -4.853465 9.151305 1.273716 11.033914 17.169921 -10.770009 23.667793 -0.696196 -23.262873 12.048273 -0.049458 -9.657034 -17.982801 -15.302787 64.823282 103.756590 35.250163 -9.880815 9.364751 2.841177 -34.132583 -5.742511 -4.144218 -1.849407 -25.362186 -47.749820 -57.031594 -69.378825 28.081033 -3.345897 -16.817830 1.736077 33.424982 -4.915537 -17.795403 -6.205812 5.320632 23.034977 5.184942 1.242547 -1.930704 -0.562835 -0.390585 1.212937 0.036730 -6.098104 -11.252911 -0.724483 -2.970563 35.091549 -5.765574 -4.952415 -20.656166 -10.631217 -0.526599 -0.152078 3.056179
55.819682 86.843095 -9.802091 101.791605 -3.188296 3.722836 -7.938996 15.994001 2.137291 -4.845445 9.198333 1.269651 -6.044142 11.511997 1.467985 -4.845444 9.198333 1.269652 11.068083 17.030027 -10.830090 23.780675 -0.921717 -23.415629 11.984217 -0.054429 -9.702569 -18.271855 -15.197466 64.954132 104.518377 35.148709 -9.568069 9.391953 2.882869 -34.250866 -5.730357 -4.239320 -1.849747 -24.824594 -47.900484 -56.737525 -69.577841 27.677209 -2.681927 -16.632937 1.606364 32.941234 -4.905046 -18.004618 -6.313973 5.401464 23.290449 5.280297 1.159704 -2.004333 -0.743447 -0.303647 1.140589 0.064247 -6.371436 -11.685430 -0.402788 -3.243198 35.966168 -6.155967 -4.863273 -21.116775 -11.437481 -0.590274 -0.252778 2.846700
55.844150 86.848691 -9.764986 101.710658 -3.083257 3.882060 -8.046171 16.034360 1.973341 -4.834373 9.245863 1.261012 -6.030514 11.571258 1.456828 -4.834372 9.245863 1.261013 11.100125 16.889836 -10.891458 23.890571 -1.147763 -23.570607 11.917541 -0.060902 -9.739376 -18.559577 -15.098929 65.089468 105.257085 35.050583 -9.266379 9.419919 2.934713 -34.376246 -5.730577 -4.336021 -1.848473 -24.267910 -48.084171 -56.474510 -69.742941 27.315540 -2.031029 -16.468080 1.490311 32.426646 -4.814746 -18.243279 -6.429499 5.485783 23.534810 5.370424 1.080229 -2.068396 -0.899128 -0.230372 1.072527 0.082943 -6.591368 -12.109251 -0.098338 -3.532620 36.775556 -6.526212 -4.677762 -21.464061 -12.041301 -0.695787 -0.382121 2.473201
55.867565 86.865879 -9.739350 101.616833 -2.977705 4.069236 -8.156564 16.069231 1.786093 -4.820974 9.292307 1.249337 -6.014046 11.629116 1.441941 -4.820972 9.292307 1.249338 11.131047 16.753239 -10.954734 23.998500 -1.366832 -23.728227 11.847570 -0.065826 -9.771884 -18.831383 -15.006555 65.222946 105.954983 34.955956 -8.991178 9.461888 2.987906 -34.510480 -5.743581 -4.426262 -1.846607 -23.712358 -48.276776 -56.230247 -69.879758 26.961172 -1.378007 -16.323995 1.386026 31.891108 -4.690738 -18.480723 -6.579775 5.564202 23.772254 5.450142 0.988323 -2.109533 -1.035760 -0.149058 0.988057 0.101891 -6.806116 -12.497887 0.153118 -3.793154 37.530270 -6.860170 -4.387599 -21.695609 -12.314486 -0.806512 -0.539260 1.870917
55.899256 86.893485 -9.723356 101.529319 -2.920136 4.265543 -8.291023 16.150454 1.583901 -4.805238 9.336758 1.236446 -5.994682 11.684464 1.425617 -4.805236 9.336758 1.236447 11.160973 16.623485 -11.021240 24.104205 -1.572637 -23.890062 11.771822 -0.070774 -9.806492 -19.078010 -14.921172 65.354650 106.606883 34.855141 -8.741898 9.516352 3.034918 -34.645075 -5.765349 -4.503757 -1.844472 -23.169748 -48.467778 -56.001142 -69.998292 26.590551 -0.728012 -16.200219 1.286027 31.340480 -4.563712 -18.666284 -6.749528 5.633036 24.003207 5.518253 0.895700 -2.096535 -1.150984 -0.066337 0.852043 0.117932 -7.039743 -12.808459 0.352550 -3.961824 38.253448 -7.099996 -4.030310 -21.818995 -12.176761 -0.820332 -0.727896 1.024511
55.932261 86.928340 -9.701433 101.393117 -2.842159 4.394956 -8.365984 16.230337 1.455991 -4.787033 9.378329 1.222839 -5.972240 11.736198 1.408500 -4.787031 9.378328 1.222840 11.190407 16.501690 -11.092028 24.208568 -1.762695 -24.057835 11.690955 -0.078730 -9.842756 -19.296276 -14.843396 65.485569 107.213348 34.752671 -8.514434 9.568892 3.083939 -34.774029 -5.789771 -4.570419 -1.835958 -22.630043 -48.651133 -55.796481 -70.104887 26.182474 -0.096622 -16.105449 1.177783 30.773452 -4.409281 -18.856517 -6.848127 5.686176 24.224986 5.572321 0.849671 -2.080984 -1.233045 -0.020498 0.718054 0.115488 -7.233122 -13.091318 0.583976 -3.967169 38.964418 -7.134337 -3.620766 -21.885211 -11.783893 -0.707939 -0.914056 0.061263
55.980116 86.968975 -9.671183 101.222980 -2.818330 4.430665 -8.394728 16.388743 1.417308 -4.767915 9.415313 1.208902 -5.948660 11.782197 1.391054 -4.767913 9.415312 1.208902 11.220899 16.388290 -11.166623 24.314108 -1.935897 -24.230961 11.611166 -0.089766 -9.878172 -19.494795 -14.770727 65.614012 107.782135 34.656756 -8.298440 9.611636 3.140120 -34.899121 -5.812743 -4.627060 -1.817086 -22.090255 -48.818183 -55.616783 -70.207251 25.719909 0.505403 -16.037330 1.051542 30.198647 -4.262060 -18.976820 -6.850311 5.716787 24.435764 5.608862 0.858781 -1.991080 -1.284752 -0.014311 0.516682 0.094442 -7.339534 -13.254506 0.872948 -3.728427 39.649583 -6.894132 -3.299844 -21.889327 -11.291493 -0.489507 -1.103982 -0.854597
56.027901 87.013771 -9.638925 101.025179 -2.767092 4.431397 -8.383896 16.538079 1.419424 -4.749559 9.447000 1.194877 -5.926034 11.821577 1.373548 -4.749557 9.446999 1.194877 11.252791 16.280937 -11.243369 24.421541 -2.096859 -24.407104 11.532699 -0.104540 -9.909876 -19.689726 -14.703523 65.742877 108.327758 34.565943 -8.075621 9.654035 3.194139 -35.022911 -5.833709 -4.672772 -1.791893 -21.566905 -48.972145 -55.449082 -70.307585 25.204765 1.067542 -15.981335 0.903554 29.626067 -4.109640 -19.113155 -6.808791 5.726710 24.633616 5.627415 0.894655 -1.894947 -1.319795 -0.018140 0.316510 0.067918 -7.277824 -13.375803 1.179267 -3.247428 40.261674 -6.418985 -3.082122 -21.810417 -10.709641 -0.309088 -1.271685 -1.694878
56.070066 87.061566 -9.611385 100.817585 -2.663966 4.446630 -8.357638 16.646376 1.416332 -4.732425 9.473798 1.180291 -5.904954 11.854845 1.355370 -4.732424 9.473797 1.180291 11.284456 16.175352 -11.321086 24.528677 -2.254139 -24.584763 11.450376 -0.122569 -9.934507 -19.893256 -14.646729 65.876626 108.862300 34.467061 -7.831060 9.708378 3.243321 -35.147138 -5.851844 -4.711790 -1.765143 -21.071385 -49.123960 -55.286899 -70.399700 24.652828 1.584090 -15.930889 0.745051 29.049260 -3.952876 -19.293206 -6.777242 5.724511 24.814881 5.633732 0.937029 -1.822186 -1.344980 -0.016309 0.147620 0.042918 -7.065284 -13.489904 1.455529 -2.651147 40.752378 -5.806533 -2.917646 -21.620451 -10.059385 -0.213576 -1.422434 -2.437184
